<?xml version="1.0" standalone="no"?>
<!DOCTYPE svg PUBLIC "-//W3C//DTD SVG 20010904//EN"
 "http://www.w3.org/TR/2001/REC-SVG-20010904/DTD/svg10.dtd">
<svg version="1.0" xmlns="http://www.w3.org/2000/svg"
 width="512.000000pt" height="512.000000pt" viewBox="0 0 512.000000 512.000000"
 preserveAspectRatio="xMidYMid meet">
<metadata>
Created by potrace 1.14, written by Peter Selinger 2001-2017
</metadata>
<g transform="translate(0.000000,512.000000) scale(0.100000,-0.100000)"
fill="#000000" stroke="none">
<path d="M0 2560 l0 -2560 2560 0 2560 0 0 2560 0 2560 -2560 0 -2560 0 0
-2560z m2466 2164 c51 -24 88 -93 80 -145 -4 -23 -13 -54 -22 -70 -17 -34 -69
-69 -99 -68 -15 0 -12 3 8 9 16 5 34 13 40 19 15 12 21 61 7 61 -6 0 -10 7
-10 15 0 8 -18 33 -40 56 -22 23 -38 45 -35 49 3 4 -2 13 -10 20 -8 7 -15 18
-15 25 0 17 -27 27 -54 20 -17 -5 -17 -3 4 9 33 20 104 20 146 0z m-556 -268
c-13 -13 -35 7 -25 24 5 8 11 8 21 -1 10 -8 12 -15 4 -23z m-159 -35 c-8 -5
-10 -14 -6 -22 6 -11 5 -11 -5 -2 -14 12 -6 33 13 33 8 0 7 -3 -2 -9z m1179
-66 c304 -50 664 -215 845 -389 l60 -57 -50 37 c-27 21 -86 54 -130 75 -260
122 -544 110 -835 -33 -58 -29 -111 -52 -117 -51 -7 0 -11 -3 -8 -7 3 -4 -6
-15 -20 -24 -29 -19 -39 -20 -29 -3 4 6 4 9 0 5 -4 -3 -8 -10 -8 -15 0 -12
-19 -33 -30 -33 -5 0 -6 6 -2 13 5 8 2 8 -9 -2 -20 -16 -23 -25 -4 -15 6 4 3
-2 -7 -14 -21 -24 -46 -31 -27 -8 9 11 9 16 0 22 -7 4 -9 3 -5 -4 3 -6 2 -13
-4 -17 -6 -4 -8 -10 -5 -14 2 -5 -5 -17 -16 -27 -36 -32 -134 -155 -178 -223
-23 -36 -43 -67 -45 -69 -6 -6 1 40 8 59 5 11 1 18 -13 22 -12 3 -19 2 -17 -2
7 -11 -27 -38 -47 -38 -14 0 -14 3 -4 15 10 13 8 14 -11 8 -26 -9 -62 1 -62
17 0 8 3 8 12 -1 19 -19 44 -14 75 13 l28 25 -24 20 c-26 22 -52 25 -82 10
-22 -12 -24 -3 -5 22 10 14 15 15 25 5 10 -9 11 -8 6 6 -4 9 -12 17 -18 17 -6
0 -7 3 -4 7 9 9 -12 32 -26 29 -7 -1 -9 -1 -4 1 4 3 5 9 1 14 -6 11 -44 -7
-44 -22 0 -6 5 -7 12 -3 7 4 8 3 4 -5 -4 -6 -12 -8 -18 -5 -7 4 -8 2 -4 -4 5
-9 13 -9 26 -2 10 5 25 10 32 9 10 0 10 -2 -1 -6 -10 -4 -10 -7 -2 -13 8 -4 3
-13 -16 -25 -24 -16 -26 -16 -14 -2 8 10 11 21 7 24 -4 4 -10 3 -14 -3 -8 -12
-22 -12 -41 0 -11 7 -11 10 3 18 20 11 21 38 1 38 -8 0 -15 -5 -15 -11 0 -5
-6 -7 -12 -3 -9 5 -9 2 1 -9 7 -9 10 -17 7 -17 -4 0 1 -14 11 -30 10 -17 22
-29 28 -27 5 3 19 1 30 -4 17 -6 17 -8 3 -8 -10 -1 -18 -5 -18 -10 0 -14 26
-32 35 -23 4 4 3 -3 -4 -15 -9 -19 -8 -24 11 -38 13 -8 40 -18 61 -22 75 -12
27 -60 -50 -49 -32 4 -42 3 -37 -6 4 -7 3 -8 -5 -4 -6 4 -9 11 -6 16 3 4 -2
11 -11 14 -8 3 -12 10 -9 16 3 5 2 10 -3 10 -5 0 -17 27 -27 61 -13 42 -25 63
-39 69 -28 10 -75 21 -58 14 10 -5 9 -10 -5 -21 -17 -13 -16 -13 4 -4 15 8 24
8 28 0 4 -6 14 -8 22 -5 8 3 11 1 8 -4 -3 -6 -1 -10 4 -10 6 0 11 -8 10 -17 0
-11 -3 -13 -6 -5 -2 6 -10 9 -15 6 -7 -5 -8 -2 -3 6 5 8 3 11 -6 8 -8 -3 -13
-10 -12 -17 2 -6 -13 -2 -32 9 -24 13 -36 16 -41 8 -5 -7 -3 -8 6 -3 10 6 12
4 7 -8 -4 -12 0 -14 19 -11 16 3 23 1 19 -6 -3 -5 -11 -10 -17 -10 -16 0 -58
-41 -58 -56 0 -13 -37 -8 -46 7 -3 5 2 6 10 3 10 -4 16 -1 16 9 0 15 -56 35
-67 24 -4 -5 -4 -38 0 -126 1 -16 5 -27 9 -25 3 2 8 -2 10 -10 2 -10 9 -11 28
-4 19 7 21 11 11 18 -8 4 -20 6 -28 3 -7 -3 -13 0 -13 7 0 7 9 11 23 8 24 -5
50 15 53 40 3 18 14 29 14 14 0 -7 15 -12 34 -12 19 0 37 -4 40 -9 4 -5 -10
-7 -32 -4 -29 4 -41 1 -57 -17 -17 -18 -17 -24 -5 -43 12 -20 12 -21 -3 -8
-18 15 -24 2 -7 -15 7 -7 6 -11 -4 -11 -8 0 -13 4 -10 9 3 4 -4 8 -15 8 -25 0
-37 -18 -22 -33 9 -9 11 -7 5 8 -4 11 10 -2 29 -30 20 -27 60 -67 88 -87 29
-21 47 -38 41 -38 -6 0 -14 5 -17 10 -3 6 -11 10 -16 10 -6 0 -7 -5 -3 -11 3
-6 -5 -3 -20 6 -14 9 -24 20 -22 24 3 4 -4 7 -15 7 -21 0 -25 -12 -6 -19 9 -4
9 -6 0 -6 -7 -1 -17 9 -24 20 -6 12 -7 19 -1 15 5 -3 12 1 16 9 3 8 0 14 -6
12 -14 -3 -88 93 -88 114 0 20 -27 33 -36 18 -3 -6 4 -21 17 -35 30 -32 17
-31 -16 2 -21 21 -24 29 -14 40 7 8 19 12 27 9 12 -4 13 1 8 26 -3 17 -6 56
-6 85 0 52 -1 54 -27 54 -16 0 -40 6 -54 14 -24 12 -28 12 -44 -6 -11 -13 -14
-29 -11 -44 6 -21 9 -23 27 -13 12 6 24 20 26 30 3 10 10 19 15 19 5 0 7 -9 3
-19 -4 -14 0 -21 12 -24 12 -3 9 -5 -9 -6 -45 -2 -60 -11 -46 -28 10 -13 13
-13 20 4 7 15 8 14 4 -4 -2 -13 -1 -23 3 -23 7 0 41 -54 41 -66 0 -4 -9 1 -20
11 -11 10 -17 21 -15 25 6 9 -73 80 -87 80 -5 0 -6 6 -2 13 6 9 5 9 -7 0 -17
-14 -53 -73 -44 -73 18 0 45 23 46 38 0 12 2 13 6 4 3 -8 -4 -27 -16 -43 -24
-33 -21 -48 12 -50 13 -1 16 -3 7 -5 -8 -3 -37 2 -63 10 -40 12 -46 12 -37 0
7 -7 27 -16 46 -20 19 -3 36 -10 39 -14 2 -4 -6 -5 -18 -3 -21 4 -22 1 -19
-35 5 -48 -17 -62 -44 -29 -10 12 -12 16 -4 10 8 -7 20 -13 27 -13 18 0 17 55
-2 70 -8 7 -15 8 -15 2 0 -14 -47 -21 -60 -8 -8 8 -19 2 -40 -24 -40 -47 -38
-61 3 -22 28 27 36 30 49 20 8 -7 18 -22 22 -33 5 -14 0 -12 -17 9 l-23 29
-32 -38 c-17 -21 -29 -41 -27 -45 2 -4 -2 -7 -10 -7 -11 0 -12 5 -3 20 9 17 8
19 -7 14 -9 -4 5 18 30 48 26 30 52 55 57 55 5 0 6 -4 3 -10 -3 -6 5 -10 19
-10 14 0 27 4 30 9 8 13 -21 34 -35 25 -8 -4 -9 -3 -5 4 4 7 1 12 -7 12 -8 0
-17 -7 -21 -15 -3 -8 -10 -15 -16 -15 -7 0 -7 6 1 21 8 15 18 20 35 16 18 -3
22 -1 14 8 -6 7 -7 21 -4 31 6 16 2 14 -20 -6 -15 -14 -31 -24 -34 -22 -4 1
-7 -1 -7 -5 0 -5 -11 -23 -24 -41 -13 -18 -21 -36 -17 -39 3 -3 11 6 17 21 8
17 15 23 20 15 4 -7 -5 -22 -21 -36 -16 -13 -31 -37 -35 -53 -4 -16 -11 -32
-16 -35 -5 -4 -14 -16 -19 -28 -8 -16 -4 -14 15 8 25 28 26 28 20 6 -5 -18 -4
-22 6 -16 9 6 11 3 6 -9 -6 -14 -3 -16 13 -11 15 5 18 3 14 -8 -3 -8 -15 -17
-26 -20 -14 -4 -19 -11 -14 -22 3 -9 2 -14 -3 -11 -5 3 -11 -5 -13 -19 -3 -14
-2 -25 1 -25 14 1 40 27 34 34 -4 4 0 4 9 1 13 -5 15 -2 11 14 -4 17 -2 20 11
15 9 -3 16 -9 16 -12 0 -11 -33 -42 -45 -42 -7 0 -18 -7 -25 -15 -7 -8 -15
-15 -19 -15 -10 0 -6 108 4 117 4 5 4 -3 0 -17 -7 -23 -6 -24 10 -9 13 12 15
22 8 34 -9 16 -11 16 -25 -4 -8 -11 -17 -18 -20 -15 -3 3 -9 0 -14 -7 -4 -7
-3 -10 3 -6 17 11 23 -20 8 -33 -11 -9 -12 -17 -5 -31 8 -13 5 -28 -11 -58
-11 -22 -17 -46 -13 -52 4 -8 3 -9 -4 -5 -8 5 -12 -2 -11 -21 0 -25 1 -26 9
-8 13 30 13 -6 0 -39 -6 -17 -6 -26 0 -26 5 0 9 -10 9 -22 -1 -13 6 -40 15
-60 9 -21 16 -45 15 -55 0 -10 -7 3 -15 30 -8 26 -19 47 -25 47 -6 0 -8 4 -4
9 3 5 1 12 -4 15 -4 3 -11 20 -15 38 l-7 33 -29 -47 c-16 -26 -32 -58 -36 -72
-3 -14 -10 -26 -14 -26 -5 0 -11 -18 -15 -40 -4 -22 -12 -43 -17 -46 -6 -4 -8
-2 -5 3 4 6 0 13 -8 17 -8 3 -17 1 -20 -5 -4 -5 -10 -7 -15 -4 -13 8 -28 -18
-28 -49 0 -19 3 -24 9 -15 14 23 21 2 8 -23 -7 -12 -12 -27 -11 -32 2 -5 -4
-6 -12 -3 -9 4 -13 0 -11 -11 2 -9 4 -17 5 -17 1 0 3 -16 4 -36 1 -20 8 -45
16 -55 13 -16 13 -17 -2 -11 -12 4 -15 2 -11 -8 3 -8 9 -13 13 -10 5 3 12 0
16 -6 4 -8 3 -9 -4 -5 -7 4 -12 3 -12 -3 0 -5 4 -13 10 -16 5 -3 10 -11 10
-18 0 -6 -12 6 -26 26 -14 21 -28 36 -30 34 -3 -3 9 -25 26 -51 29 -42 32 -66
9 -66 -5 0 -9 5 -9 11 0 5 5 7 10 4 6 -3 10 -1 10 4 0 13 -17 14 -24 2 -8 -13
4 -42 15 -35 5 3 9 1 9 -5 0 -5 -6 -11 -12 -14 -9 -3 -7 -9 6 -19 12 -9 17
-21 13 -32 -7 -18 2 -48 12 -41 4 2 8 -2 8 -10 0 -8 -7 -17 -14 -19 -8 -3 -12
-2 -9 3 3 5 -1 14 -9 21 -10 9 -8 -8 10 -56 13 -38 29 -68 35 -66 6 1 8 -3 4
-9 -3 -6 0 -15 7 -20 11 -7 10 -9 -3 -9 -10 0 -18 -6 -18 -14 0 -23 18 -28 30
-9 7 12 10 13 7 3 -2 -8 0 -24 6 -35 9 -18 9 -19 -8 -5 -17 14 -18 14 -6 -8 7
-12 16 -20 21 -17 6 3 7 -1 4 -9 -4 -10 1 -18 11 -22 12 -5 13 -9 5 -14 -15
-9 -5 -30 14 -30 7 0 13 -7 13 -15 0 -11 -3 -12 -14 -3 -16 13 97 -190 135
-242 14 -19 32 -41 41 -48 9 -7 16 -16 16 -21 0 -4 7 -15 15 -23 90 -96 136
-138 147 -134 7 3 10 -1 6 -10 -3 -7 0 -14 5 -14 6 0 22 -10 35 -22 39 -39 87
-78 93 -78 3 0 21 -12 40 -26 18 -14 41 -24 49 -20 8 3 15 0 15 -7 0 -7 31
-27 68 -46 67 -33 68 -33 101 -17 18 10 35 15 38 13 2 -3 -5 -8 -16 -12 -12
-3 -21 -11 -21 -17 0 -5 7 -8 15 -4 8 3 15 1 15 -4 0 -6 11 -5 27 1 21 8 28 7
35 -5 6 -10 18 -13 41 -9 17 2 52 -2 77 -11 25 -9 53 -16 63 -16 10 0 16 -4
13 -9 -9 -14 20 -21 34 -8 9 8 11 9 7 1 -4 -7 3 -14 16 -17 12 -2 31 -8 42
-12 16 -5 17 -5 5 4 -13 9 -13 11 3 11 9 0 17 -5 17 -11 0 -6 7 -3 16 5 16 17
10 41 -8 30 -7 -4 -8 -2 -4 4 10 16 36 15 36 0 0 -10 3 -9 9 1 5 7 14 10 20 7
6 -4 11 -2 11 5 0 7 3 9 7 6 3 -4 -2 -16 -12 -27 -13 -15 -16 -23 -8 -31 6 -6
9 -19 5 -27 -5 -14 -4 -15 10 -2 10 9 13 19 7 25 -16 16 -10 35 11 32 23 -4
39 -17 21 -17 -9 0 -8 -4 3 -15 20 -20 25 -19 37 8 l10 22 -5 -22 c-5 -28 6
-29 42 -6 20 13 24 14 15 3 -9 -13 -5 -15 25 -17 32 -1 34 0 12 7 -23 7 -23 8
9 9 24 1 32 -3 28 -12 -3 -8 1 -14 9 -14 7 0 11 4 9 8 -8 12 20 28 61 35 21 3
46 8 54 9 8 2 19 4 23 4 4 1 2 11 -4 24 l-12 22 20 -20 c11 -11 19 -21 18 -23
-7 -8 -109 -41 -116 -37 -4 3 -10 1 -14 -5 -4 -6 6 -10 24 -10 17 0 31 5 31
11 0 6 7 8 16 5 20 -8 74 20 74 39 0 8 4 15 10 15 6 0 6 -9 0 -26 -9 -23 -8
-25 7 -19 10 3 41 8 68 11 37 3 44 1 25 -5 -14 -5 -40 -9 -58 -10 -19 -1 -35
-7 -39 -16 -9 -24 -2 -25 63 -14 32 6 69 12 81 14 82 12 143 32 143 46 0 5 7
9 15 9 8 0 15 5 15 11 0 6 7 8 15 5 8 -3 23 -9 33 -12 14 -5 15 -4 2 6 -12 9
-11 11 10 9 49 -3 55 0 34 16 -18 14 -18 14 4 8 14 -3 22 -1 22 8 0 8 5 6 13
-6 13 -16 16 -17 43 -3 16 8 56 27 88 42 46 21 56 30 45 37 -10 7 -7 8 11 4
38 -9 224 104 318 193 13 13 41 34 63 48 21 13 39 26 39 28 0 2 -42 -18 -94
-44 -110 -55 -214 -85 -346 -100 -189 -21 -380 25 -592 145 -44 25 -82 45 -84
45 -2 0 -29 18 -61 41 -84 58 -172 138 -232 211 -49 57 -46 55 25 -18 139
-143 214 -196 415 -294 181 -87 282 -111 463 -108 80 1 126 5 106 9 -34 6 -34
6 -5 8 17 1 41 4 55 6 22 5 23 4 5 -5 -18 -9 -17 -10 5 -5 14 2 34 5 45 6 14
0 9 5 -15 15 -31 13 -32 14 -7 10 15 -2 30 0 32 4 3 4 22 11 42 15 21 4 71 22
112 41 41 19 79 34 86 34 17 0 139 87 205 146 l54 49 -34 -50 c-50 -73 -238
-258 -256 -251 -8 3 -12 2 -9 -3 3 -5 -21 -30 -52 -54 -229 -175 -505 -296
-847 -369 -132 -28 -429 -31 -577 -5 -570 99 -1018 434 -1231 922 -182 416
-207 890 -67 1273 42 114 129 289 190 379 27 40 49 74 49 76 0 3 -12 8 -27 12
-16 4 -23 9 -16 12 7 2 21 0 31 -6 17 -9 28 -1 82 65 117 142 338 322 510 417
293 161 696 228 1040 172z m756 -111 c18 -14 18 -14 -6 -3 -31 14 -36 19 -24
19 6 0 19 -7 30 -16z m274 -211 c0 -8 -9 0 -50 45 l-45 47 48 -45 c26 -24 47
-45 47 -47z m31 -40 c13 -16 12 -17 -3 -4 -17 13 -22 21 -14 21 2 0 10 -8 17
-17z m-594 -135 c-3 -7 -5 -2 -5 12 0 14 2 19 5 13 2 -7 2 -19 0 -25z m-2502
-38 c3 -6 -1 -7 -9 -4 -18 7 -21 14 -7 14 6 0 13 -4 16 -10z m2565 -5 c0 -8
-2 -15 -4 -15 -2 0 -11 -3 -20 -6 -11 -4 -16 -1 -16 11 0 11 5 15 16 11 8 -3
12 -2 9 4 -3 6 -1 10 4 10 6 0 11 -7 11 -15z m10 -75 c0 -5 -2 -10 -4 -10 -3
0 -8 5 -11 10 -3 6 -1 10 4 10 6 0 11 -4 11 -10z m-2232 -27 c-10 -2 -26 -2
-35 0 -10 3 -2 5 17 5 19 0 27 -2 18 -5z m1900 0 c-10 -2 -28 -2 -40 0 -13 2
-5 4 17 4 22 1 32 -1 23 -4z m1122 -43 c11 -11 20 -32 20 -47 0 -16 -4 -23 -8
-17 -4 6 -27 12 -52 12 -82 3 -103 24 -58 56 31 22 74 20 98 -4z m-1057 -17
c-13 -2 -35 -2 -50 0 -16 2 -5 4 22 4 28 0 40 -2 28 -4z m-1153 -79 c0 -2 -9
0 -20 6 -11 6 -20 7 -20 1 0 -15 -52 -23 -64 -10 -8 9 -7 11 5 7 8 -3 26 0 39
7 22 12 60 5 60 -11z m1138 9 c-10 -2 -26 -2 -35 0 -10 3 -2 5 17 5 19 0 27
-2 18 -5z m262 -13 c0 -5 -2 -10 -4 -10 -3 0 -8 5 -11 10 -3 6 -1 10 4 10 6 0
11 -4 11 -10z m210 -10 c0 -5 -8 -6 -17 -3 -13 5 -15 2 -10 -11 4 -10 3 -15
-3 -11 -18 11 -11 35 10 35 11 0 20 -4 20 -10z m-1615 -10 c3 -6 -1 -7 -10 -4
-11 5 -14 2 -9 -12 5 -16 4 -16 -5 -4 -6 8 -11 18 -11 23 0 11 28 9 35 -3z
m-90 -10 c3 -5 2 -10 -4 -10 -5 0 -13 5 -16 10 -3 6 -2 10 4 10 5 0 13 -4 16
-10z m34 -32 c1 -5 -3 -8 -9 -8 -5 0 -10 12 -9 28 0 24 1 25 9 7 5 -11 9 -23
9 -27z m1784 17 c-3 -9 -8 -14 -10 -11 -3 3 -2 9 2 15 9 16 15 13 8 -4z
m-1918 -5 c4 -6 11 -8 16 -5 5 4 9 1 9 -5 0 -6 6 -8 13 -4 10 6 1 -6 -32 -46
-2 -3 -1 3 2 13 5 13 3 17 -5 14 -7 -2 -12 -10 -10 -17 3 -14 -20 -8 -25 7 -2
6 6 13 19 17 19 5 20 8 8 15 -8 5 -18 7 -22 5 -4 -3 -8 0 -8 5 0 14 27 14 35
1z m221 -16 c16 -15 23 -23 17 -20 -23 13 -38 -6 -18 -21 18 -12 17 -13 -5
-13 -13 0 -20 3 -17 7 4 3 1 13 -6 21 -8 11 -8 14 0 9 6 -4 15 -2 19 4 5 8 0
10 -17 6 -13 -3 -31 -2 -39 4 -12 8 -9 9 10 7 16 -2 24 2 23 10 -4 17 0 15 33
-14z m1243 -1 c-1 -23 -2 -24 -6 -6 -2 13 -13 24 -26 26 -18 4 -17 5 6 6 23 1
27 -3 26 -26z m164 0 c-7 -2 -21 -2 -30 0 -10 3 -4 5 12 5 17 0 24 -2 18 -5z
m387 -13 c-6 -11 -13 -20 -16 -20 -2 0 0 9 6 20 6 11 13 20 16 20 2 0 0 -9 -6
-20z m-2113 4 c-3 -3 -12 -4 -19 -1 -8 3 -5 6 6 6 11 1 17 -2 13 -5z m270 -15
c6 -6 9 -18 6 -25 -4 -10 4 -14 27 -14 19 0 29 -4 25 -10 -4 -6 -16 -8 -28 -5
-12 2 -17 2 -10 -1 7 -3 9 -12 6 -20 -3 -8 0 -20 6 -28 8 -10 8 -16 -4 -26 -8
-7 -15 -9 -15 -5 0 5 -9 0 -20 -10 -11 -10 -17 -21 -15 -26 3 -4 1 -10 -4 -13
-15 -10 -6 21 11 41 28 30 32 70 12 101 -28 42 -26 70 3 41z m1250 -81 c-2
-18 -4 -4 -4 32 0 36 2 50 4 33 2 -18 2 -48 0 -65z m530 70 c-3 -8 -6 -5 -6 6
-1 11 2 17 5 13 3 -3 4 -12 1 -19z m96 7 c-3 -9 -8 -14 -10 -11 -3 3 -2 9 2
15 9 16 15 13 8 -4z m37 -15 c-6 -11 -13 -20 -16 -20 -2 0 0 9 6 20 6 11 13
20 16 20 2 0 0 -9 -6 -20z m40 2 c0 -5 -7 -17 -15 -28 -14 -18 -14 -17 -4 9
12 27 19 34 19 19z m-1796 -22 c-14 -14 -72 -21 -79 -10 -3 4 3 7 12 6 10 -2
29 1 43 5 35 10 35 10 24 -1z m-476 -7 c-10 -2 -28 -2 -40 0 -13 2 -5 4 17 4
22 1 32 -1 23 -4z m-55 -20 c-7 -2 -19 -2 -25 0 -7 3 -2 5 12 5 14 0 19 -2 13
-5z m2242 -74 c0 -67 2 -75 18 -71 19 5 50 -16 42 -28 -3 -4 3 -14 12 -21 15
-12 16 -12 10 6 -7 20 -7 20 8 1 8 -11 15 -16 15 -11 0 4 9 0 19 -9 19 -17 22
-38 7 -53 -4 -4 -6 -3 -4 2 1 6 -1 11 -5 12 -5 0 -21 12 -35 26 -15 13 -39 32
-53 41 -25 16 -27 16 -32 -4 -3 -11 -10 -20 -17 -20 -8 0 -11 18 -10 53 2 28
2 73 1 99 l-1 47 -97 4 -98 3 110 0 110 -1 0 -76z m-2159 56 c18 -14 17 -14
-11 -6 -57 17 -60 19 -34 20 14 1 34 -6 45 -14z m1884 -91 c0 -83 -2 -94 -17
-94 -16 0 -18 10 -15 87 3 98 7 117 22 108 6 -3 10 -48 10 -101z m400 102 c0
-2 -8 -10 -17 -17 -16 -13 -17 -12 -4 4 13 16 21 21 21 13z m-1913 -32 c-3 -3
-12 -4 -19 -1 -8 3 -5 6 6 6 11 1 17 -2 13 -5z m64 -21 c13 -16 12 -17 -3 -4
-10 7 -18 15 -18 17 0 8 8 3 21 -13z m-346 -34 c22 -23 34 -39 28 -35 -7 4
-13 2 -13 -3 0 -6 -10 -11 -22 -10 -22 0 -22 1 2 10 l25 10 -33 30 c-19 17
-40 28 -48 25 -9 -3 -12 -1 -9 4 12 19 31 10 70 -31z m1562 -1 c-3 -7 -5 -2
-5 12 0 14 2 19 5 13 2 -7 2 -19 0 -25z m323 17 c0 -9 -9 -15 -25 -15 -16 0
-25 6 -25 15 0 9 9 15 25 15 16 0 25 -6 25 -15z m-2220 2 c0 -2 -16 -19 -37
-38 -37 -34 -36 -22 2 18 17 19 35 29 35 20z m77 -29 c-3 -8 -6 -5 -6 6 -1 11
2 17 5 13 3 -3 4 -12 1 -19z m1576 -3 c203 -43 408 -249 422 -425 4 -54 4 -54
-4 -10 -13 67 -37 118 -78 164 -35 39 -71 66 -47 35 19 -24 23 -46 8 -46 -7 0
-11 4 -8 8 2 4 0 10 -6 14 -5 3 -10 0 -10 -8 0 -8 -7 -17 -15 -20 -11 -5 -12
-1 -4 20 5 14 7 28 4 31 -3 3 -5 0 -5 -7 0 -7 -9 -3 -20 10 -17 21 -19 21 -13
4 3 -11 11 -26 16 -33 7 -9 6 -11 -6 -6 -9 3 -20 19 -26 35 -11 32 -23 36 -40
15 -9 -11 -5 -20 18 -44 17 -16 33 -27 36 -24 3 3 5 0 5 -7 0 -8 -7 -10 -22
-5 -13 5 -35 8 -50 9 -14 0 -30 3 -34 8 -11 11 -26 9 -19 -3 3 -5 1 -10 -4
-10 -6 0 -11 6 -11 13 0 8 -4 7 -10 -3 -9 -13 -10 -13 -10 0 0 12 -2 13 -9 1
-7 -11 -11 -8 -16 10 -4 13 -16 30 -27 37 -18 13 -16 38 3 27 5 -3 6 1 3 10
-6 14 -8 14 -20 -2 -10 -14 -15 -16 -25 -5 -7 6 -23 12 -36 12 -13 0 -23 5
-23 11 0 8 -6 7 -17 -2 -11 -10 -14 -10 -9 -1 4 7 2 12 -8 12 -8 0 -21 2 -29
6 -20 7 -77 -43 -96 -87 l-17 -37 -13 29 c-7 16 -20 29 -29 29 -13 0 -14 2 -4
9 11 7 11 9 -1 14 -8 3 -25 -2 -38 -10 -12 -9 -19 -12 -16 -6 11 17 -45 26
-78 13 -16 -6 -51 -27 -78 -48 -57 -41 -85 -49 -93 -27 -6 16 -24 11 -24 -6 0
-6 5 -7 12 -3 7 5 8 3 3 -5 -11 -20 -28 3 -20 28 3 12 11 19 16 16 5 -3 6 0 4
7 -15 39 110 168 205 211 117 53 282 70 413 42z m-1626 -27 c-3 -7 -5 -2 -5
12 0 14 2 19 5 13 2 -7 2 -19 0 -25z m428 22 c3 -6 -1 -7 -9 -4 -18 7 -21 14
-7 14 6 0 13 -4 16 -10z m-472 -42 c-20 -29 -29 -37 -31 -25 -3 13 41 65 56
67 1 0 -10 -19 -25 -42z m2034 26 c-3 -3 -12 -4 -19 -1 -8 3 -5 6 6 6 11 1 17
-2 13 -5z m623 -4 c0 -5 -5 -10 -11 -10 -5 0 -7 5 -4 10 3 6 8 10 11 10 2 0 4
-4 4 -10z m-456 -35 c-4 -8 -1 -15 4 -15 6 0 13 7 15 15 4 11 4 10 3 -2 -2
-26 -36 -30 -36 -4 0 12 4 21 10 21 5 0 7 -7 4 -15z m-1899 -40 c-74 -68 -100
-77 -30 -12 33 31 64 57 70 57 5 0 -13 -20 -40 -45z m2270 26 c-3 -6 -11 -11
-16 -11 -5 0 -4 6 3 14 14 16 24 13 13 -3z m-2165 -1 c0 -5 -8 -10 -17 -10
-15 0 -16 2 -3 10 19 12 20 12 20 0z m76 -28 c-4 -3 -14 2 -24 12 -16 18 -16
18 6 6 13 -6 21 -14 18 -18z m-452 3 c3 -8 1 -15 -4 -15 -6 0 -10 7 -10 15 0
8 2 15 4 15 2 0 6 -7 10 -15z m558 -4 c8 11 9 11 6 1 -4 -16 -22 -18 -24 -2
-2 7 -1 6 3 -1 4 -8 8 -7 15 2z m-496 -36 c15 -14 24 -25 19 -25 -4 0 -20 11
-37 25 -16 14 -25 25 -19 25 5 0 22 -11 37 -25z m222 11 c-7 -8 -15 -12 -17
-11 -5 6 10 25 20 25 5 0 4 -6 -3 -14z m-298 1 c0 -2 -10 -12 -22 -23 l-23
-19 19 23 c18 21 26 27 26 19z m190 -7 c-8 -5 -19 -10 -25 -10 -5 0 -3 5 5 10
8 5 20 10 25 10 6 0 3 -5 -5 -10z m-293 -55 c-6 -38 -4 -46 14 -56 15 -8 18
-14 11 -21 -16 -16 -62 17 -62 43 0 22 27 79 37 79 3 0 3 -20 0 -45z m2196 38
c-7 -2 -19 -2 -25 0 -7 3 -2 5 12 5 14 0 19 -2 13 -5z m417 4 c0 -2 -12 -14
-27 -28 l-28 -24 24 28 c23 25 31 32 31 24z m-3269 -16 c-8 -5 -10 -14 -6 -22
6 -11 5 -11 -5 -2 -14 12 -6 33 13 33 8 0 7 -3 -2 -9z m3077 -5 c31 -16 70
-57 97 -101 18 -30 18 -30 -2 -12 -11 9 -22 17 -25 17 -16 0 -106 69 -95 73 6
2 -13 3 -43 1 -41 -3 -49 -1 -30 5 22 8 20 9 -18 10 -67 2 -40 21 29 21 33 0
72 -6 87 -14z m-2487 -29 c-10 -9 -11 -8 -5 6 3 10 9 15 12 12 3 -3 0 -11 -7
-18z m331 7 c-12 -8 -27 -12 -32 -9 -23 14 -7 -10 39 -58 63 -66 95 -107 84
-107 -5 0 -19 14 -32 30 -12 17 -27 28 -33 24 -7 -4 -8 -3 -4 4 4 7 -9 29 -30
52 -29 31 -40 37 -54 30 -14 -8 -18 -6 -16 8 2 10 18 22 42 29 54 16 62 16 36
-3z m-115 -16 c-3 -8 -6 -5 -6 6 -1 11 2 17 5 13 3 -3 4 -12 1 -19z m2518 12
c-3 -5 -12 -10 -18 -10 -7 0 -6 4 3 10 19 12 23 12 15 0z m-2498 -35 c0 -9 -6
-14 -13 -11 -6 2 -20 -2 -31 -9 -10 -8 -22 -14 -28 -14 -7 0 63 48 71 49 0 0
1 -7 1 -15z m1780 -4 c-1 -15 -4 -17 -14 -9 -7 5 -10 14 -7 19 10 16 23 9 21
-10z m-2014 -44 c3 -8 -1 -14 -8 -14 -7 0 -11 6 -8 14 3 7 6 13 8 13 2 0 5 -6
8 -13z m287 9 c0 -3 -4 -8 -10 -11 -5 -3 -10 -1 -10 4 0 6 5 11 10 11 6 0 10
-2 10 -4z m-151 -37 c-36 -27 -156 -92 -139 -75 8 8 40 28 70 45 30 17 54 35
53 40 -2 6 5 7 14 4 12 -5 14 -3 8 7 -6 9 -4 11 5 5 10 -6 7 -12 -11 -26z m81
1 c6 -11 8 -20 6 -20 -3 0 -10 9 -16 20 -6 11 -8 20 -6 20 3 0 10 -9 16 -20z
m44 4 c3 -8 2 -12 -4 -9 -6 3 -10 10 -10 16 0 14 7 11 14 -7z m1863 -21 c1
-24 1 -25 -7 -8 -11 26 -12 35 -2 35 4 0 8 -12 9 -27z m-47 7 c0 -5 -2 -10 -4
-10 -3 0 -8 5 -11 10 -3 6 -1 10 4 10 6 0 11 -4 11 -10z m-1907 -26 c-7 -20
-19 -17 -19 5 0 11 6 17 13 14 6 -3 9 -11 6 -19z m1888 -1 c13 -16 12 -17 -3
-4 -17 13 -22 21 -14 21 2 0 10 -8 17 -17z m-2141 -38 c-6 -20 -10 -41 -7 -48
3 -8 -4 -14 -16 -15 -15 -1 -18 1 -9 7 7 4 12 12 11 17 -1 5 3 22 9 37 7 16
12 33 12 39 0 6 3 9 6 5 3 -3 1 -22 -6 -42z m437 30 c0 -8 -4 -12 -9 -9 -5 3
-6 10 -3 15 9 13 12 11 12 -6z m-249 -20 c-6 -14 -13 -23 -15 -21 -5 5 15 46
22 46 3 0 -1 -11 -7 -25z m152 11 c0 -2 -7 -7 -16 -10 -8 -3 -12 -2 -9 4 6 10
25 14 25 6z m69 1 c-2 -1 -13 -9 -24 -17 -19 -14 -19 -14 -6 3 7 9 18 17 24
17 6 0 8 -1 6 -3z m68 -13 c-3 -3 -12 -4 -19 -1 -8 3 -5 6 6 6 11 1 17 -2 13
-5z m1764 -11 c13 -17 13 -17 -6 -3 -11 8 -22 16 -24 17 -2 2 0 3 6 3 6 0 17
-8 24 -17z m-1956 -3 c-18 -7 -18 -9 -3 -15 20 -8 30 -42 13 -42 -7 0 -11 6
-8 13 4 11 -28 37 -38 31 -2 -1 2 4 10 11 8 6 22 12 30 11 11 0 10 -3 -4 -9z
m49 -16 c3 -8 2 -12 -4 -9 -6 3 -10 10 -10 16 0 14 7 11 14 -7z m-194 -4 c0
-5 -2 -10 -4 -10 -3 0 -8 5 -11 10 -3 6 -1 10 4 10 6 0 11 -4 11 -10z m262 -7
c-7 -12 -4 -21 12 -35 21 -18 20 -18 -10 -1 -29 15 -30 18 -15 35 19 23 25 23
13 1z m-197 -32 c3 -5 2 -12 -3 -15 -5 -3 -9 1 -9 9 0 17 3 19 12 6z m-675
-29 c25 -9 25 -9 -8 -17 -43 -9 -72 11 -45 30 10 8 20 9 23 5 3 -5 17 -13 30
-18z m420 -37 c-12 -27 -20 -58 -17 -71 2 -13 -2 -32 -9 -41 -11 -16 -12 -13
-9 18 9 105 17 140 31 135 8 -3 14 0 14 6 0 6 3 9 6 6 3 -3 -4 -27 -16 -53z
m167 33 c-3 -8 -6 -5 -6 6 -1 11 2 17 5 13 3 -3 4 -12 1 -19z m1696 -7 c-3
-10 9 -15 29 -12 5 0 3 -29 -2 -36 -2 -2 -3 -7 -4 -12 0 -5 -5 -13 -10 -18 -5
-5 -6 -3 -2 5 6 11 -11 17 -36 13 -13 -2 -4 23 12 36 13 11 13 12 -1 13 -22 0
-43 -26 -33 -42 6 -10 5 -11 -8 -1 -8 7 -18 9 -23 5 -4 -4 -2 3 6 15 7 12 15
21 18 21 15 -3 40 15 35 24 -4 6 -1 8 7 6 8 -3 13 -11 12 -17z m-1566 3 c-3
-3 -12 -4 -19 -1 -8 3 -5 6 6 6 11 1 17 -2 13 -5z m2606 -1 c-7 -2 -21 -2 -30
0 -10 3 -4 5 12 5 17 0 24 -2 18 -5z m-793 -23 c0 -5 -2 -10 -4 -10 -3 0 -8 5
-11 10 -3 6 -1 10 4 10 6 0 11 -4 11 -10z m277 -22 c-3 -7 -5 -2 -5 12 0 14 2
19 5 13 2 -7 2 -19 0 -25z m-2250 0 c-3 -8 -6 -5 -6 6 -1 11 2 17 5 13 3 -3 4
-12 1 -19z m1449 6 c10 -8 14 -13 7 -10 -7 4 -13 -4 -15 -21 -2 -18 -10 -29
-22 -31 -10 -2 -16 0 -12 6 3 5 0 9 -7 8 -13 -1 -17 6 -17 32 0 11 3 13 8 5 5
-8 12 -7 27 4 17 13 17 15 2 9 -11 -3 -16 -2 -12 4 9 14 18 13 41 -6z m-873
-1 c-7 -2 -19 -2 -25 0 -7 3 -2 5 12 5 14 0 19 -2 13 -5z m1437 -3 c0 -5 -5
-10 -11 -10 -5 0 -7 5 -4 10 3 6 8 10 11 10 2 0 4 -4 4 -10z m745 -10 c5 -17
16 -20 68 -22 l62 -2 -61 -3 -62 -4 -6 -52 c-4 -28 -13 -55 -19 -59 -7 -4 -65
-8 -129 -8 -88 0 -118 3 -118 13 -1 6 -3 45 -6 85 l-6 72 135 0 c127 0 136 -1
142 -20z m-780 -9 c-3 -6 -11 -11 -17 -11 -6 0 -6 6 2 15 14 17 26 13 15 -4z
m-2201 -9 c-5 -4 -12 -11 -15 -15 -3 -5 -9 -2 -12 5 -3 9 3 14 15 15 11 1 16
-1 12 -5z m254 -67 c-12 -13 -28 12 -28 45 0 25 0 25 19 -5 11 -19 15 -34 9
-40z m227 35 c3 -5 1 -10 -4 -10 -6 0 -11 5 -11 10 0 6 2 10 4 10 3 0 8 -4 11
-10z m1211 -12 c-18 -10 -39 -2 -31 12 3 4 15 6 26 3 19 -5 19 -7 5 -15z m771
-43 c-5 -50 -48 -165 -62 -165 -3 0 2 14 11 31 23 45 44 119 44 157 0 17 3 32
6 32 4 0 4 -25 1 -55z m-1999 10 c-3 -3 -9 2 -12 12 -6 14 -5 15 5 6 7 -7 10
-15 7 -18z m2537 -35 c3 -5 1 -10 -4 -10 -6 0 -11 5 -11 10 0 6 2 10 4 10 3 0
8 -4 11 -10z m93 3 c-10 -2 -26 -2 -35 0 -10 3 -2 5 17 5 19 0 27 -2 18 -5z
m-3118 -18 c7 -9 8 -15 2 -15 -5 0 -12 7 -16 15 -3 8 -4 15 -2 15 2 0 9 -7 16
-15z m531 -12 c13 -16 12 -17 -3 -4 -10 7 -18 15 -18 17 0 8 8 3 21 -13z m392
10 c-7 -2 -21 -2 -30 0 -10 3 -4 5 12 5 17 0 24 -2 18 -5z m-822 -26 c-10 -9
-11 -8 -5 6 3 10 9 15 12 12 3 -3 0 -11 -7 -18z m-101 -4 c0 -5 -5 -15 -10
-23 -7 -12 -9 -10 -7 8 1 19 17 33 17 15z m561 -20 c13 -16 12 -17 -3 -4 -10
7 -18 15 -18 17 0 8 8 3 21 -13z m2482 10 c-13 -2 -35 -2 -50 0 -16 2 -5 4 22
4 28 0 40 -2 28 -4z m-2859 -19 c3 -8 2 -12 -4 -9 -6 3 -10 10 -10 16 0 14 7
11 14 -7z m2934 9 c-10 -2 -26 -2 -35 0 -10 3 -2 5 17 5 19 0 27 -2 18 -5z
m-2764 -55 c-8 -12 -34 11 -34 30 0 13 3 12 20 -3 11 -10 17 -22 14 -27z
m2766 32 c0 -5 -2 -10 -4 -10 -3 0 -8 5 -11 10 -3 6 -1 10 4 10 6 0 11 -4 11
-10z m-2525 -20 c10 -11 16 -20 13 -20 -3 0 -13 9 -23 20 -10 11 -16 20 -13
20 3 0 13 -9 23 -20z m2438 -7 c-7 -2 -21 -2 -30 0 -10 3 -4 5 12 5 17 0 24
-2 18 -5z m-2402 -40 c13 -16 12 -17 -3 -4 -10 7 -18 15 -18 17 0 8 8 3 21
-13z m1769 -27 c0 -2 -8 -10 -17 -17 -16 -13 -17 -12 -4 4 13 16 21 21 21 13z
m-1725 -26 c10 -11 16 -20 13 -20 -3 0 -13 9 -23 20 -10 11 -16 20 -13 20 3 0
13 -9 23 -20z m-648 -12 c-3 -8 -6 -5 -6 6 -1 11 2 17 5 13 3 -3 4 -12 1 -19z
m130 -25 c-3 -10 -5 -4 -5 12 0 17 2 24 5 18 2 -7 2 -21 0 -30z m2173 -18
c-24 -25 -46 -45 -49 -45 -3 0 15 20 39 45 24 25 46 45 49 45 3 0 -15 -20 -39
-45z m-2298 1 c12 -17 13 -23 3 -23 -7 0 -18 11 -24 24 -14 29 -1 29 21 -1z
m719 -43 c13 -16 12 -17 -3 -4 -10 7 -18 15 -18 17 0 8 8 3 21 -13z m1159 -93
c0 -5 -4 -10 -10 -10 -5 0 -10 5 -10 10 0 6 5 10 10 10 6 0 10 -4 10 -10z
m-660 -110 c11 -22 18 -40 15 -40 -2 0 -14 18 -25 40 -11 22 -18 40 -15 40 2
0 14 -18 25 -40z m74 -120 c31 -44 32 -48 8 -20 -17 19 -38 49 -48 65 -23 42
-5 21 40 -45z m57 -77 c13 -16 12 -17 -3 -4 -10 7 -18 15 -18 17 0 8 8 3 21
-13z m1188 -38 c0 -5 -4 -3 -9 5 -5 8 -9 22 -9 30 0 16 17 -16 18 -35z m-826
-52 c-7 -2 -19 -2 -25 0 -7 3 -2 5 12 5 14 0 19 -2 13 -5z m80 -10 c-7 -2 -21
-2 -30 0 -10 3 -4 5 12 5 17 0 24 -2 18 -5z m17 -50 c0 -8 -14 -13 -37 -13
-30 0 -35 3 -23 11 11 8 7 9 -17 4 -22 -4 -33 -3 -33 5 0 7 19 10 55 8 36 -2
55 -7 55 -15z m530 -109 c0 -2 -7 -4 -15 -4 -8 0 -15 4 -15 10 0 5 7 7 15 4 8
-4 15 -8 15 -10z m-1956 -20 c5 -14 4 -15 -9 -4 -17 14 -19 20 -6 20 5 0 12
-7 15 -16z m82 -119 c8 -19 21 -35 29 -35 7 0 17 -4 20 -10 7 -11 -23 -2 -42
12 -12 10 -36 68 -27 68 3 0 12 -16 20 -35z m580 19 c13 -3 24 -10 24 -15 0
-13 -11 -11 -50 12 -19 11 -27 18 -17 15 11 -4 30 -9 43 -12z m-669 -9 c0 -8
-4 -12 -9 -9 -4 3 -8 9 -8 15 0 5 4 9 8 9 5 0 9 -7 9 -15z m1971 -92 c-10 -2
-28 -2 -40 0 -13 2 -5 4 17 4 22 1 32 -1 23 -4z m-73 -101 c-22 -19 -88 -55
-81 -44 4 7 24 21 44 32 41 21 51 24 37 12z m-747 -58 c-7 -6 -57 9 -53 17 3
4 17 3 30 -3 14 -6 24 -12 23 -14z m-683 6 c3 -6 -1 -7 -9 -4 -18 7 -21 14 -7
14 6 0 13 -4 16 -10z m661 -32 c4 -7 3 -10 -1 -5 -5 4 -17 0 -27 -10 -22 -20
-24 -11 -2 11 19 19 21 19 30 4z m-466 -13 c0 -8 -7 -15 -15 -15 -13 0 -14 3
-3 15 16 18 18 18 18 0z m1054 6 c10 -15 -7 -21 -22 -8 -13 10 -15 9 -9 -5 4
-12 0 -21 -12 -27 -15 -8 -17 -6 -15 12 1 12 3 25 3 30 1 10 49 9 55 -2z
m-849 -21 c-3 -5 2 -10 11 -10 10 0 15 -3 11 -6 -10 -10 -39 5 -32 16 3 5 8
10 11 10 3 0 2 -4 -1 -10z m1050 0 c3 -5 1 -10 -4 -10 -6 0 -11 5 -11 10 0 6
2 10 4 10 3 0 8 -4 11 -10z m-1157 -16 c23 -4 42 -10 42 -14 0 -9 -120 16
-130 27 -3 3 6 3 20 0 14 -3 44 -9 68 -13z m-142 -3 c5 -5 20 -11 34 -14 17
-3 14 -5 -10 -4 -20 0 -42 -3 -49 -8 -10 -5 -12 -4 -7 3 4 7 1 12 -6 12 -9 0
-9 3 2 10 19 12 24 12 36 1z m224 -21 c0 -5 -4 -10 -9 -10 -6 0 -13 5 -16 10
-3 6 1 10 9 10 9 0 16 -4 16 -10z m747 4 c-3 -3 -12 -4 -19 -1 -8 3 -5 6 6 6
11 1 17 -2 13 -5z m-1797 -92 c3 -3 -4 0 -15 6 -11 6 -36 27 -55 48 -33 36
-33 36 15 -6 28 -24 52 -46 55 -48z m917 82 c-3 -3 -12 -4 -19 -1 -8 3 -5 6 6
6 11 1 17 -2 13 -5z m386 -57 c-5 -8 -8 -7 -11 1 -2 7 -7 10 -11 8 -4 -3 -8 5
-8 16 -2 19 -1 19 17 3 11 -10 17 -22 13 -28z m337 29 c0 -2 -7 -7 -16 -10 -8
-3 -12 -2 -9 4 6 10 25 14 25 6z m114 -18 c-5 -8 -1 -9 12 -5 18 7 18 7 0 -7
-14 -12 -21 -12 -31 -3 -10 10 -10 13 4 19 23 9 23 9 15 -4z m-1064 -349 c0
-5 -4 -9 -10 -9 -5 0 -10 7 -10 16 0 8 5 12 10 9 6 -3 10 -10 10 -16z"/>
<path d="M1890 4470 c0 -5 5 -10 11 -10 5 0 7 5 4 10 -3 6 -8 10 -11 10 -2 0
-4 -4 -4 -10z"/>
<path d="M2323 4195 c0 -7 6 -11 14 -8 7 3 13 6 13 8 0 2 -6 5 -13 8 -8 3 -14
-1 -14 -8z"/>
<path d="M2820 4203 c0 -22 12 -43 26 -43 8 0 14 5 14 12 0 6 -3 8 -7 4 -4 -3
-13 4 -20 16 -7 13 -12 18 -13 11z"/>
<path d="M2287 4179 c7 -7 15 -10 18 -7 3 3 -2 9 -12 12 -14 6 -15 5 -6 -5z"/>
<path d="M2679 4168 c-12 -42 7 -74 39 -64 27 9 28 27 4 49 -16 15 -40 23 -43
15z m44 -35 c-7 -2 -21 -2 -30 0 -10 3 -4 5 12 5 17 0 24 -2 18 -5z"/>
<path d="M2987 4139 c7 -7 15 -10 18 -7 3 3 -2 9 -12 12 -14 6 -15 5 -6 -5z"/>
<path d="M2170 4121 c-14 -28 -13 -31 13 -27 12 3 25 5 30 5 4 1 7 10 7 21 0
26 -36 27 -50 1z"/>
<path d="M2632 4106 c3 -4 2 -21 -2 -38 -8 -25 -7 -28 5 -18 12 10 15 10 15 0
0 -8 3 -10 6 -7 4 4 1 13 -5 21 -7 8 -10 20 -7 25 4 5 1 13 -6 17 -7 4 -10 4
-6 0z"/>
<path d="M2264 4081 c3 -5 15 -7 26 -4 28 7 25 13 -6 13 -14 0 -23 -4 -20 -9z"/>
<path d="M2145 4069 c-11 -17 -2 -18 19 -3 17 12 17 14 4 14 -9 0 -20 -5 -23
-11z"/>
<path d="M2323 4060 c-11 -16 -10 -18 2 -14 8 4 15 12 15 20 0 19 -3 18 -17
-6z"/>
<path d="M2219 4053 c-13 -15 -12 -15 9 -4 23 12 28 21 13 21 -5 0 -15 -7 -22
-17z"/>
<path d="M2372 4050 c2 -9 -4 -15 -14 -15 -10 0 -24 -10 -32 -21 -12 -17 -13
-21 -1 -21 8 0 13 5 12 11 -1 6 6 10 16 10 9 -1 17 3 17 10 0 6 8 2 16 -9 16
-19 16 -19 9 5 -8 28 -28 55 -23 30z"/>
<path d="M2529 4040 c-16 -11 -9 -19 20 -25 13 -2 21 1 21 10 0 17 -23 25 -41
15z"/>
<path d="M2589 4049 c-7 -23 -4 -49 5 -46 6 2 19 0 29 -5 9 -5 17 -5 17 0 0 9
-49 58 -51 51z"/>
<path d="M2263 4003 c9 -2 15 -9 12 -14 -9 -14 1 -11 13 4 8 10 5 13 -16 14
-15 0 -19 -1 -9 -4z"/>
<path d="M2401 3978 c-1 -10 -11 -18 -28 -21 l-28 -4 28 -2 c16 0 26 -5 22
-10 -3 -6 3 -9 14 -8 14 1 17 5 12 17 -5 8 -11 22 -14 30 -4 12 -6 12 -6 -2z"/>
<path d="M2304 3958 c-4 -7 -3 -10 1 -5 5 4 17 0 27 -9 15 -14 16 -20 5 -32
-9 -11 -5 -11 16 2 25 17 40 35 16 21 -6 -4 -21 3 -34 15 -18 17 -25 19 -31 8z"/>
<path d="M2557 3953 c6 -15 4 -16 -9 -5 -13 10 -18 10 -24 1 -5 -8 -3 -9 6 -4
10 6 12 4 7 -7 -4 -11 0 -15 11 -14 20 3 28 31 13 41 -7 4 -8 -1 -4 -12z"/>
<path d="M2159 3931 c-30 -30 -37 -51 -18 -51 5 0 8 3 5 8 -8 14 23 45 39 38
9 -3 14 -2 11 3 -12 19 44 -3 73 -29 30 -28 45 -54 19 -32 -16 12 -56 -2 -64
-23 -4 -8 -10 -15 -16 -15 -5 0 -6 6 -2 13 5 7 -2 5 -16 -4 -36 -24 -32 -43
11 -47 50 -4 85 12 104 47 46 89 -74 164 -146 92z m117 -110 c-8 -12 -46 -21
-46 -11 0 5 8 11 18 13 29 8 33 7 28 -2z m-71 -11 c3 -5 1 -10 -4 -10 -6 0
-11 5 -11 10 0 6 2 10 4 10 3 0 8 -4 11 -10z"/>
<path d="M2463 3943 c0 -9 4 -10 14 -2 7 6 13 12 13 14 0 1 -6 2 -13 2 -8 0
-14 -6 -14 -14z"/>
<path d="M2033 3900 c-30 -13 -41 -24 -37 -34 8 -22 34 -28 50 -11 20 19 30
19 14 0 -10 -12 -10 -15 4 -15 9 0 16 8 16 20 0 12 -7 20 -17 20 -15 0 -16 2
-3 9 8 6 18 7 22 5 4 -3 8 2 8 10 0 20 -4 19 -57 -4z"/>
<path d="M2190 3895 c-13 -14 -18 -25 -12 -25 6 0 15 7 20 16 8 15 10 15 15 0
7 -18 16 -20 37 -6 13 8 12 11 -5 24 -26 20 -28 20 -55 -9z"/>
<path d="M2426 3905 c-3 -9 -19 -16 -38 -16 -31 -2 -31 -2 -5 -6 15 -2 25 -8
22 -13 -2 -4 7 -10 22 -13 23 -4 25 -3 12 6 -16 12 -14 42 2 32 5 -4 6 1 3 9
-8 20 -10 20 -18 1z"/>
<path d="M2518 3887 c2 -10 5 -16 6 -15 1 2 7 10 13 18 10 13 8 16 -6 16 -13
0 -17 -6 -13 -19z"/>
<path d="M1873 3887 c-4 -8 -17 -16 -27 -18 -11 -2 -20 -11 -21 -20 -4 -25 31
-12 50 18 9 14 14 27 12 30 -3 2 -9 -2 -14 -10z"/>
<path d="M2331 3865 c0 -12 -13 -36 -28 -54 -22 -25 -38 -33 -73 -37 -69 -8
-79 -13 -58 -28 10 -7 22 -24 27 -37 9 -21 10 -22 11 -4 0 16 2 17 9 6 9 -14
81 -43 79 -32 -2 19 3 31 11 26 6 -3 8 6 5 21 -3 16 -1 23 6 19 6 -4 9 -1 8 7
-2 7 3 12 10 11 6 -2 11 0 10 5 0 4 2 15 7 25 5 11 3 23 -4 30 -9 9 -11 9 -6
-3 3 -9 -2 -24 -11 -35 -14 -18 -15 -18 -10 -2 3 11 2 16 -4 12 -14 -9 -12 2
6 30 9 13 14 32 11 42 -4 16 -5 15 -6 -2z m-22 -112 c-6 -7 -8 -17 -5 -22 7
-10 -12 -27 -20 -18 -15 15 -13 57 3 66 22 12 37 -7 22 -26z m-81 -8 c2 -1 -3
-5 -10 -8 -8 -2 -23 2 -33 10 -19 13 -18 14 10 7 17 -4 31 -8 33 -9z m31 -27
c-1 -18 -2 -19 -6 -5 -2 9 -9 14 -15 11 -7 -4 -8 -2 -4 4 12 20 26 13 25 -10z"/>
<path d="M2290 3760 c-9 -6 -10 -10 -3 -10 6 0 15 5 18 10 8 12 4 12 -15 0z"/>
<path d="M2465 3850 c9 -16 18 -30 21 -30 2 0 -2 14 -11 30 -9 17 -18 30 -21
30 -2 0 2 -13 11 -30z"/>
<path d="M1904 3827 c-18 -23 -41 -61 -53 -85 l-22 -43 28 7 c27 7 43 20 43
37 0 4 -4 7 -10 7 -5 0 -10 4 -10 9 0 6 8 8 18 6 10 -2 25 1 33 6 11 7 10 9
-6 9 -18 1 -18 2 3 10 12 5 22 12 22 15 0 4 -4 4 -9 0 -5 -3 -12 -1 -15 4 -3
5 1 12 9 15 11 4 19 -3 26 -22 6 -15 10 -29 9 -31 -1 -2 3 -7 9 -10 6 -4 -5
-14 -25 -23 -27 -12 -32 -13 -23 -2 6 8 17 14 24 14 8 0 11 8 8 20 -3 11 -9
20 -14 20 -5 0 -6 -7 -3 -15 4 -10 0 -15 -10 -15 -13 0 -36 -35 -36 -56 0 -10
29 -2 40 11 7 9 19 14 27 11 8 -3 12 -2 9 3 -3 5 1 12 10 15 11 4 15 2 11 -8
-3 -8 -1 -17 6 -20 7 -2 0 -5 -14 -5 -14 -1 -47 -12 -73 -26 -46 -25 -76 -34
-46 -15 11 7 6 10 -20 9 -29 0 -31 -2 -15 -9 17 -7 17 -9 3 -9 -10 -1 -18 -3
-18 -5 0 -2 -3 -12 -6 -21 -6 -15 -4 -15 29 -1 20 8 39 11 42 7 2 -5 -8 -11
-23 -15 -32 -6 -59 -23 -51 -30 3 -3 19 -6 37 -8 22 -1 34 -9 38 -22 6 -19 7
-19 20 -1 12 16 11 21 -8 37 -16 14 -17 18 -6 18 9 0 21 14 28 30 7 17 21 35
31 41 21 11 72 1 63 -12 -3 -5 0 -9 5 -9 15 0 14 11 -4 54 -9 20 -13 42 -9 48
4 6 3 8 -3 5 -5 -3 -20 16 -33 43 -13 28 -26 50 -29 50 -3 0 -20 -20 -37 -43z
m9 -172 c-3 -9 -8 -14 -10 -11 -3 3 -2 9 2 15 9 16 15 13 8 -4z"/>
<path d="M2122 3850 c0 -14 2 -19 5 -12 2 6 2 18 0 25 -3 6 -5 1 -5 -13z"/>
<path d="M1786 3831 c-17 -19 -17 -19 2 -14 11 2 23 0 26 -6 4 -6 1 -9 -7 -5
-8 3 -18 1 -22 -5 -3 -7 3 -11 17 -12 20 -1 19 -2 -6 -9 -16 -5 -34 -6 -39 -3
-6 3 -7 1 -3 -5 3 -5 0 -12 -6 -15 -19 -6 -4 -18 28 -22 26 -3 31 2 50 44 l21
47 -21 0 c-12 -1 -20 5 -18 12 3 17 -2 15 -22 -7z m24 -65 c0 -3 -4 -8 -10
-11 -5 -3 -10 -1 -10 4 0 6 5 11 10 11 6 0 10 -2 10 -4z"/>
<path d="M2038 3823 c-33 -5 -32 -2 -13 -40 14 -28 19 -31 57 -27 23 2 43 5
44 7 5 4 -47 67 -54 66 -4 -1 -19 -4 -34 -6z m7 -23 c3 -6 -1 -7 -9 -4 -18 7
-21 14 -7 14 6 0 13 -4 16 -10z m43 -2 c7 -7 12 -17 12 -22 0 -6 -5 -4 -10 4
-5 8 -10 10 -10 4 0 -7 -9 -14 -20 -17 -11 -3 -20 -2 -20 3 0 4 10 10 23 14
18 5 20 8 7 16 -8 5 -10 10 -4 10 5 0 15 -5 22 -12z"/>
<path d="M1680 3736 c0 -2 7 -9 15 -16 13 -11 14 -10 9 4 -5 14 -24 23 -24 12z"/>
<path d="M1732 3693 c-15 -31 -8 -48 19 -51 22 -3 27 2 32 25 3 15 3 31 0 35
-8 15 -42 8 -51 -9z"/>
<path d="M1591 3654 c-8 -19 -8 -24 1 -18 8 5 9 2 5 -9 -4 -11 -2 -14 9 -10
11 4 12 9 3 19 -12 15 -4 34 14 33 9 0 9 -2 0 -6 -17 -6 -16 -23 1 -23 7 0 16
8 18 18 8 30 -37 27 -51 -4z"/>
<path d="M1679 3663 c-13 -16 -12 -17 4 -4 9 7 17 15 17 17 0 8 -8 3 -21 -13z"/>
<path d="M2228 3668 c6 -6 23 -12 38 -14 19 -2 23 1 16 8 -6 6 -23 13 -38 14
-19 2 -24 0 -16 -8z"/>
<path d="M2360 3620 c-9 -6 -10 -10 -3 -10 6 0 15 5 18 10 8 12 4 12 -15 0z"/>
<path d="M1527 3596 c-4 -10 -3 -15 3 -11 15 9 12 -6 -5 -25 -13 -14 -12 -16
5 -17 11 -1 22 2 25 8 3 5 -1 6 -11 2 -15 -5 -14 -3 2 23 11 15 14 25 7 21 -6
-4 -13 -2 -15 5 -3 7 -7 5 -11 -6z"/>
<path d="M2080 3607 c0 -4 7 -24 15 -43 8 -20 12 -41 8 -48 -3 -6 -3 -8 2 -4
4 4 20 1 36 -7 36 -19 73 -19 89 0 10 13 9 15 -10 15 -30 0 -104 44 -125 72
-8 13 -15 19 -15 15z"/>
<path d="M2320 3585 c6 -8 9 -19 5 -25 -3 -5 -4 -10 -1 -10 3 0 10 10 17 21 8
15 8 19 0 15 -6 -4 -11 -2 -11 3 0 6 -5 11 -11 11 -8 0 -8 -4 1 -15z"/>
<path d="M1489 3563 c-13 -16 -12 -17 4 -4 9 7 17 15 17 17 0 8 -8 3 -21 -13z"/>
<path d="M1356 3385 c-9 -26 -7 -32 5 -12 6 10 9 21 6 23 -2 3 -7 -2 -11 -11z"/>
<path d="M1321 3328 c-8 -18 -16 -37 -18 -43 -3 -5 5 5 17 22 12 18 20 37 18
43 -2 6 -10 -4 -17 -22z"/>
<path d="M1850 3354 c0 -13 18 -39 24 -34 2 3 -2 14 -10 24 -8 11 -14 16 -14
10z"/>
<path d="M1287 3322 c-20 -22 -21 -32 -5 -32 6 0 8 3 5 7 -4 3 0 15 10 25 9
10 14 18 11 18 -3 0 -12 -8 -21 -18z"/>
<path d="M1930 3256 c0 -2 7 -7 16 -10 8 -3 12 -2 9 4 -6 10 -25 14 -25 6z"/>
<path d="M1280 3198 c-12 -22 -12 -22 6 -6 10 10 15 20 12 24 -4 3 -12 -5 -18
-18z"/>
<path d="M1226 3134 c-10 -14 -16 -28 -13 -30 2 -3 12 7 21 22 10 14 16 28 13
30 -2 3 -12 -7 -21 -22z"/>
<path d="M1245 3095 c-15 -42 -29 -65 -40 -65 -13 0 -55 -42 -55 -55 0 -4 10
0 21 11 22 19 22 19 10 -3 -6 -13 -8 -23 -4 -23 4 0 2 -4 -4 -8 -7 -4 -15 -24
-19 -42 -5 -28 2 -19 33 39 21 40 46 89 56 108 10 19 16 40 14 46 -3 7 -8 3
-12 -8z"/>
<path d="M1195 3079 c-4 -6 -5 -12 -2 -15 2 -3 7 2 10 11 7 17 1 20 -8 4z"/>
<path d="M1085 3010 c3 -5 8 -10 11 -10 2 0 4 5 4 10 0 6 -5 10 -11 10 -5 0
-7 -4 -4 -10z"/>
<path d="M1112 2880 c0 -14 2 -19 5 -12 2 6 2 18 0 25 -3 6 -5 1 -5 -13z"/>
<path d="M1059 2833 c16 -33 14 -48 -4 -33 -13 11 -14 10 -9 -4 8 -20 14 -20
42 0 21 15 22 41 1 28 -6 -3 -17 2 -25 12 -14 18 -14 18 -5 -3z"/>
<path d="M1123 2825 c-3 -9 -3 -18 -1 -21 3 -3 8 4 11 16 6 23 -1 27 -10 5z"/>
<path d="M3810 1530 c-19 -11 -30 -19 -25 -19 6 0 26 8 45 19 19 11 31 19 25
19 -5 0 -26 -8 -45 -19z"/>
<path d="M3703 1487 c-17 -7 -35 -15 -39 -20 -10 -10 58 13 71 24 11 11 8 11
-32 -4z"/>
<path d="M2108 1173 c10 -4 9 -8 -4 -17 -15 -11 -13 -14 16 -20 18 -3 35 -4
38 -1 3 3 -2 5 -11 5 -9 0 -17 5 -17 11 0 5 4 7 10 4 6 -3 7 1 4 9 -3 9 -16
16 -28 15 -11 0 -15 -3 -8 -6z"/>
<path d="M2190 1146 c14 -18 13 -19 -5 -12 -16 6 -18 5 -7 -5 8 -9 15 -10 22
-3 8 8 5 15 -7 25 -17 13 -17 13 -3 -5z"/>
<path d="M2768 1093 c-11 -15 -11 -16 6 -10 14 6 17 4 12 -8 -3 -8 -1 -15 3
-15 15 0 19 25 6 37 -10 10 -16 9 -27 -4z"/>
<path d="M2840 1085 c-11 -13 -10 -14 4 -9 9 3 16 10 16 15 0 13 -6 11 -20 -6z"/>
<path d="M2496 1077 c3 -10 9 -15 12 -12 3 3 0 11 -7 18 -10 9 -11 8 -5 -6z"/>
<path d="M2694 1069 c-13 -5 -7 -8 24 -8 23 -1 42 1 42 3 0 8 -48 12 -66 5z"/>
<path d="M2040 3364 c0 -8 5 -12 10 -9 6 4 8 11 5 16 -9 14 -15 11 -15 -7z"/>
<path d="M3991 3194 c6 -7 16 -11 21 -8 11 7 3 17 -18 20 -12 2 -13 -1 -3 -12z"/>
<path d="M3603 3300 c0 -41 2 -58 4 -37 2 20 2 54 0 75 -2 20 -4 3 -4 -38z"/>
<path d="M3024 3251 c3 -4 -3 -16 -14 -26 -10 -9 -16 -24 -13 -33 4 -15 3 -15
-6 -2 -9 13 -11 13 -11 -3 0 -10 11 -22 26 -27 33 -13 34 -13 34 5 0 8 5 15
10 15 6 0 9 -5 8 -11 -2 -6 5 -13 15 -14 28 -5 20 10 -17 30 -20 11 -32 24
-29 32 3 7 10 10 15 7 6 -4 5 3 -1 15 -7 11 -14 21 -17 21 -3 0 -3 -4 0 -9z"/>
<path d="M2970 3220 c-9 -6 -10 -10 -3 -10 6 0 15 5 18 10 8 12 4 12 -15 0z"/>
<path d="M2649 3129 c-9 -17 -8 -20 2 -13 8 5 27 8 44 7 24 -1 25 0 6 4 -19 4
-21 7 -10 14 11 7 9 9 -8 9 -13 0 -27 -9 -34 -21z"/>
<path d="M2634 3092 c3 -5 0 -12 -6 -15 -7 -2 -10 -7 -7 -11 3 -4 12 0 18 8 9
11 9 16 0 22 -7 4 -9 3 -5 -4z"/>
<path d="M2593 3048 c-20 -26 -24 -42 -5 -21 11 12 23 19 27 15 5 -4 5 -1 1 6
-4 6 -9 12 -10 12 -2 0 -8 -6 -13 -12z"/>
<path d="M3056 2785 c4 -8 10 -12 15 -9 11 6 2 24 -11 24 -5 0 -7 -7 -4 -15z"/>
<path d="M4006 2754 c-17 -17 -19 -27 -10 -61 7 -27 48 -32 58 -7 20 52 -15
101 -48 68z"/>
</g>
</svg>
